<svg width="24" height="24" viewBox="0 0 24 24" fill="none" xmlns="http://www.w3.org/2000/svg">
<g clip-path="url(#clip0_12108_374573)">
<path d="M7.06498 7.6606L9.52524 7.84854H15.2842L17.7445 7.6606C17.9446 7.64532 17.9524 7.44726 17.7538 7.4245L14.0643 7.00174C14.0549 7.00066 14.0453 7.00012 14.0358 7.00012H10.7737C10.7641 7.00012 10.7546 7.00066 10.7451 7.00174L7.05562 7.4245C6.85701 7.44726 6.86486 7.64532 7.06498 7.6606Z" fill="#9BD7F9"/>
<path d="M18.8512 7.87794L20.7186 8.57576C20.8476 8.62397 20.8366 8.75372 20.7002 8.79122L17.0484 9.79545C16.9777 9.8149 16.8968 9.80034 16.849 9.75955L15.4762 8.58808C15.3892 8.51383 15.4581 8.40275 15.5961 8.39332C16.9556 8.30046 17.7957 8.16862 18.6918 7.87534C18.7425 7.85874 18.8018 7.8595 18.8512 7.87794Z" fill="#9BD7F9"/>
<path d="M14.3194 8.41415H10.4388C10.3819 8.41415 10.3286 8.43333 10.2962 8.46548L8.95772 9.7937C8.87803 9.87278 8.96035 9.98083 9.10027 9.98083H15.7896C15.9331 9.98083 16.0145 9.86789 15.9277 9.7894L14.4574 8.46118C14.4246 8.43155 14.3735 8.41415 14.3194 8.41415Z" fill="#9BD7F9"/>
<path d="M7.92714 10.447L10.9239 16.7856C10.9873 16.9197 10.7191 17.0051 10.6114 16.8851L4.04163 9.5692C3.95387 9.47148 4.09808 9.35333 4.2533 9.39579L7.82632 10.3731C7.87424 10.3862 7.91119 10.4133 7.92714 10.447Z" fill="#9BD7F9"/>
<path d="M13.6502 16.7355L17.0999 10.4429C17.1171 10.4116 17.1526 10.3867 17.1978 10.3743L20.7259 9.40407C20.8836 9.36068 21.0286 9.483 20.935 9.58048L13.9572 16.8433C13.8433 16.9619 13.5773 16.8685 13.6502 16.7355Z" fill="#9BD7F9"/>
<path d="M8.84293 10.5499L12.0823 17.4021C12.1332 17.5099 12.3535 17.5126 12.4101 17.4062L16.0544 10.554C16.0957 10.4762 16.012 10.3938 15.8915 10.3938H9.00786C8.89003 10.3938 8.80651 10.4728 8.84293 10.5499Z" fill="#9BD7F9"/>
<path d="M4.09061 8.57576L5.95807 7.87794C6.00743 7.8595 6.06675 7.85873 6.11745 7.87538C7.012 8.16905 7.80654 8.30083 9.16284 8.39372C9.29951 8.40308 9.36894 8.51236 9.2846 8.58688L7.95995 9.75738C7.91249 9.79931 7.83041 9.8146 7.75867 9.79487L4.10902 8.79122C3.97268 8.75372 3.96159 8.62397 4.09061 8.57576Z" fill="#9BD7F9"/>
<line x1="21.3098" y1="3.39244" x2="2.30982" y2="18.3924" stroke="#979797"/>
</g>
<defs>
<clipPath id="clip0_12108_374573">
<rect width="24" height="24" fill="white"/>
</clipPath>
</defs>
</svg>
